<?xml version="1.0" standalone="no"?>
<!DOCTYPE svg PUBLIC "-//W3C//DTD SVG 20010904//EN"
 "http://www.w3.org/TR/2001/REC-SVG-20010904/DTD/svg10.dtd">
<svg version="1.0" xmlns="http://www.w3.org/2000/svg"
 width="1045.000000pt" height="412.000000pt" viewBox="0 0 1045.000000 412.000000"
 preserveAspectRatio="xMidYMid meet">
<metadata>
Created by potrace 1.16, written by Peter Selinger 2001-2019
</metadata>
<g transform="translate(0.000000,412.000000) scale(0.100000,-0.100000)"
fill="#000000" stroke="none">
<path d="M3455 4089 c-192 -11 -439 -43 -535 -69 l-75 -19 95 4 c52 3 165 10
250 17 208 16 980 16 1190 0 454 -35 877 -95 1068 -153 161 -49 347 -167 550
-348 40 -35 80 -77 88 -93 13 -25 13 -32 -2 -56 -31 -54 -72 -72 -162 -72 -77
0 -85 2 -138 36 -143 91 -292 129 -483 121 -143 -5 -241 -28 -361 -83 -88 -41
-180 -95 -180 -106 0 -4 95 -8 211 -8 137 0 208 3 204 10 -3 6 -14 10 -24 10
-10 0 -24 6 -30 14 -9 11 -5 17 21 29 112 52 304 48 455 -9 48 -19 47 -17 32
-46 l-11 -20 529 7 c290 4 530 9 532 11 5 5 -1 10 -144 112 -382 274 -884 570
-1046 616 -121 34 -438 67 -829 86 -306 15 -1028 20 -1205 9z"/>
<path d="M3110 3959 c-69 -5 -176 -16 -238 -24 -91 -13 -121 -14 -150 -4 -125
41 -457 -68 -710 -234 -266 -174 -469 -382 -862 -882 -95 -121 -207 -258 -248
-304 -41 -46 -90 -108 -108 -138 -52 -80 -195 -457 -193 -508 0 -17 2 -17 11
5 6 14 21 48 33 75 12 28 43 75 69 105 53 61 86 119 112 199 17 52 19 54 91
87 204 92 530 216 753 285 69 21 113 38 99 39 -38 0 -313 -37 -448 -61 -63
-11 -120 -18 -127 -15 -26 10 21 105 124 254 24 34 45 62 47 62 2 0 -16 -37
-40 -82 -24 -46 -47 -101 -51 -122 l-7 -39 79 6 c135 10 873 204 1267 334 129
42 146 46 150 31 3 -9 0 -19 -7 -21 -6 -2 -144 -55 -306 -117 -162 -62 -299
-117 -305 -122 -7 -7 -3 -8 10 -4 161 48 910 204 1255 260 338 56 805 111
1000 117 119 5 -152 17 -383 18 l-258 1 16 30 c9 17 30 40 48 50 30 19 52 20
380 20 191 0 347 3 347 7 0 3 -31 38 -69 77 -118 122 -152 227 -93 286 71 70
354 122 862 157 l115 8 -100 6 c-55 3 -382 12 -726 19 -542 12 -686 12 -1075
-1 -472 -16 -578 -15 -571 4 11 34 183 59 517 77 113 6 239 14 280 17 66 5 71
7 40 14 -118 26 -449 41 -630 28z m-528 -334 c22 -47 39 -87 37 -89 -2 -2 -87
-24 -189 -49 -175 -44 -583 -167 -623 -189 -10 -5 -21 -7 -24 -4 -7 6 169 94
284 142 48 21 153 59 233 85 80 27 136 49 124 49 -11 0 -106 -16 -210 -35
-104 -19 -193 -35 -199 -34 -33 0 214 105 390 165 72 24 131 44 133 44 2 0 21
-38 44 -85z m950 -202 c59 -141 106 -258 105 -259 -1 -1 -57 -4 -125 -6 l-123
-3 -95 210 c-52 116 -103 229 -114 252 l-18 41 91 10 c51 5 110 10 132 10 l40
2 107 -257z m-341 -28 c60 -137 107 -250 106 -251 -1 -1 -17 -4 -35 -6 l-33
-3 -100 250 c-54 138 -99 251 -99 252 0 3 35 11 44 9 5 -1 58 -114 117 -251z
m-594 -48 c50 -31 60 -34 70 -21 6 8 13 11 16 7 6 -10 47 -167 47 -180 0 -19
-546 -64 -602 -50 -32 8 -58 68 -58 132 0 54 -14 46 205 111 188 55 235 56
322 1z"/>
<path d="M6840 3251 c8 -5 69 -11 136 -14 355 -19 766 -101 1064 -214 127 -48
316 -144 391 -199 33 -25 64 -43 67 -39 3 3 -40 51 -96 106 -67 65 -94 98 -79
94 187 -40 382 -88 574 -141 130 -35 241 -63 247 -61 16 5 -229 100 -434 167
-502 167 -1021 267 -1550 300 -199 12 -341 13 -320 1z"/>
<path d="M5140 3089 c0 -5 5 -9 10 -9 23 0 1118 -404 1185 -437 53 -27 73 -54
97 -129 12 -41 25 -74 28 -74 3 0 31 51 62 113 31 61 63 120 70 130 11 15 39
19 198 28 101 5 186 11 187 13 6 5 -58 13 -382 46 l-310 32 -525 135 c-289 74
-546 141 -572 148 -27 8 -48 10 -48 4z"/>
<path d="M4260 2768 c-36 -5 -105 -22 -155 -39 -100 -33 -355 -154 -355 -168
0 -19 86 -82 164 -120 97 -47 212 -84 361 -116 119 -26 319 -55 363 -54 31 1
28 2 -50 24 l-57 16 -67 105 -67 105 59 61 59 60 55 -6 c89 -10 405 -58 410
-63 3 -3 -15 -22 -39 -43 l-45 -39 58 -124 58 -125 122 -6 c343 -19 528 -26
692 -26 l182 0 61 41 c62 41 221 202 221 224 0 18 -317 106 -612 169 -303 65
-570 98 -1003 126 -187 12 -324 11 -415 -2z m-28 -174 l-41 -45 30 -66 c16
-36 27 -68 25 -70 -7 -7 -182 86 -201 107 -15 16 -16 22 -5 35 19 23 66 46
135 66 97 28 103 26 57 -27z m1568 -164 c21 0 -58 -78 -102 -101 -54 -28 -148
-47 -263 -54 -55 -3 -114 -8 -131 -11 -30 -4 -35 0 -104 96 l-72 100 43 38 42
38 286 -53 c157 -29 293 -53 301 -53z"/>
<path d="M9028 2647 c-98 -50 -178 -96 -178 -101 0 -5 42 -78 93 -162 l92
-154 133 0 c234 0 429 33 426 73 -1 9 -32 64 -69 122 -48 74 -71 102 -76 93
-5 -7 -9 -46 -9 -86 l0 -73 -156 3 -156 3 -61 84 -61 84 109 103 c61 57 106
103 100 103 -5 0 -90 -41 -187 -92z"/>
<path d="M8006 2694 c-285 -12 -305 -15 -306 -46 0 -5 16 -8 35 -8 21 0 35 -5
35 -12 1 -60 90 -1602 93 -1604 5 -5 15 466 23 1114 l7 492 31 0 32 0 22 -752
c22 -721 31 -972 38 -966 1 2 12 388 24 858 12 470 23 856 24 857 1 1 12 0 23
-3 17 -5 23 -16 27 -48 3 -22 17 -405 31 -851 14 -445 27 -811 29 -812 6 -7
16 196 41 892 30 812 30 815 54 815 17 0 19 -33 25 -602 6 -587 16 -1072 21
-1066 2 2 23 375 46 831 30 569 47 827 55 827 36 0 37 -28 32 -817 -3 -422 -1
-754 3 -738 5 17 29 309 54 650 25 341 49 640 53 663 l7 44 45 -64 45 -63 -1
-180 c-1 -204 -20 -391 -69 -680 -35 -205 -71 -362 -98 -426 -29 -71 -134
-123 -311 -154 -108 -18 -125 -28 -36 -20 36 3 140 10 232 15 92 4 172 11 178
15 32 20 121 272 154 440 40 203 74 546 83 831 6 210 6 211 -19 265 -26 56
-105 160 -197 262 l-53 57 -112 -1 c-61 -1 -241 -8 -400 -15z"/>
<path d="M7010 2654 c-151 -6 -294 -13 -317 -13 -31 -1 -43 -5 -43 -16 0 -10
11 -15 35 -15 21 0 35 -5 35 -12 1 -56 90 -1602 93 -1605 5 -5 15 476 23 1105
l7 502 34 0 33 0 0 -82 c0 -155 50 -1631 55 -1636 3 -3 5 12 5 34 0 21 9 383
20 804 11 421 20 791 20 823 0 54 1 57 24 57 22 0 25 -6 30 -42 3 -24 17 -410
31 -858 14 -448 28 -816 29 -818 7 -6 16 197 41 888 30 817 30 820 54 820 17
0 19 -32 25 -577 8 -761 18 -1116 27 -1008 4 44 24 413 44 820 21 407 42 745
47 750 6 6 15 3 25 -10 13 -18 15 -110 11 -795 -2 -426 -1 -761 3 -745 5 17
29 309 54 650 25 341 49 640 53 665 l7 44 39 -53 c57 -81 60 -94 53 -285 -16
-428 -127 -1056 -199 -1123 -50 -48 -249 -112 -345 -113 -18 0 -33 -3 -33 -8
0 -7 415 14 457 23 44 10 134 258 173 479 41 228 80 657 80 883 0 113 -3 134
-24 178 -29 63 -95 152 -176 238 l-62 67 -97 -1 c-53 -1 -220 -8 -371 -15z"/>
<path d="M2535 2559 c-529 -49 -1349 -228 -1535 -334 -37 -21 -12 -19 156 15
550 112 1035 188 1255 197 134 6 136 5 152 -17 21 -31 16 -36 -40 -45 -163
-23 -1448 -236 -1452 -240 -7 -8 -45 -11 1132 85 202 17 372 30 377 30 6 0 10
-12 10 -28 l0 -27 -367 -53 c-743 -106 -1116 -161 -1127 -166 -20 -8 15 -6
740 39 395 25 725 45 732 45 7 0 12 -13 12 -30 0 -19 -5 -30 -14 -30 -32 0
-1440 -180 -1444 -185 -7 -7 -61 -9 688 25 825 37 760 37 760 5 0 -14 -6 -28
-12 -30 -7 -3 -325 -38 -707 -79 -381 -42 -696 -78 -699 -81 -4 -3 90 -3 208
0 290 9 1195 32 1196 31 1 -1 -1 -15 -3 -32 -5 -31 -5 -31 -81 -38 -494 -42
-1285 -116 -1290 -120 -3 -4 301 -3 676 0 l682 7 0 -29 0 -30 -617 -43 c-340
-23 -643 -46 -673 -50 -60 -8 584 -21 1022 -21 l258 0 0 -30 c0 -30 0 -30 -57
-31 -177 -2 -1241 -66 -1193 -72 30 -3 320 -13 645 -22 324 -9 591 -17 592
-18 0 -1 -1 -14 -4 -30 -5 -26 -8 -27 -67 -27 -102 0 -1179 -40 -1183 -43 -5
-5 130 -13 687 -37 267 -12 491 -24 499 -26 21 -7 -10 -37 -60 -60 -40 -17
-58 -17 -562 -1 -569 19 -573 19 -565 12 17 -17 370 -73 633 -99 316 -32 797
-58 832 -45 33 12 35 37 17 186 -19 167 -22 507 -5 678 17 161 55 384 92 530
37 142 36 217 -2 286 -44 78 -108 95 -294 78z"/>
<path d="M6572 2464 l-53 -105 66 -617 c69 -652 75 -705 81 -699 5 4 -34 1519
-39 1523 -2 2 -26 -44 -55 -102z"/>
<path d="M9612 2238 c23 -61 59 -180 57 -183 -2 -2 -151 -13 -331 -26 -179
-13 -325 -26 -323 -30 3 -3 71 -9 152 -13 163 -8 415 -32 477 -46 21 -5 50
-20 63 -33 l25 -24 -11 -434 -10 -434 -31 -94 c-17 -52 -29 -101 -28 -110 2
-9 30 35 62 98 l58 114 34 480 c32 458 33 480 16 502 -9 13 -57 73 -107 134
-82 100 -115 132 -103 99z"/>
<path d="M3156 2182 c-172 -115 -279 -381 -315 -782 -20 -212 -10 -490 23
-647 l12 -62 -60 5 c-34 2 -146 9 -251 14 -633 35 -1152 95 -1337 156 l-47 15
-6 67 c-31 322 -108 661 -182 807 -39 76 -106 164 -134 175 -115 48 -211 -209
-240 -644 -22 -338 26 -737 107 -898 14 -28 22 -54 17 -57 -4 -4 -69 -22 -143
-40 -329 -81 -600 -198 -600 -258 l0 -23 5215 0 c3151 0 5215 4 5215 9 0 12
-62 60 -121 94 -160 91 -570 208 -959 273 -58 10 -106 18 -108 20 -2 1 11 23
27 50 17 26 31 53 31 58 1 33 19 36 325 51 170 9 310 17 310 18 1 1 16 21 33
43 18 23 32 44 32 46 0 2 -75 3 -167 1 -93 -1 -1093 -8 -2224 -14 l-2056 -11
-79 45 c-43 25 -119 65 -169 89 l-90 43 -427 3 -426 3 7 27 c7 27 8 27 208 57
111 17 204 33 208 36 3 4 -82 12 -189 19 l-194 13 15 51 c8 28 16 52 17 52 0
1 104 12 231 24 126 12 231 23 233 25 6 6 -74 14 -257 25 -96 6 -177 13 -179
15 -3 3 0 22 7 44 11 37 14 39 59 45 64 8 461 46 492 47 23 0 23 1 5 9 -11 5
-130 16 -265 25 -135 9 -246 18 -248 20 -2 2 2 22 9 44 8 28 19 43 33 46 12 2
145 9 296 16 231 10 400 24 339 28 -9 1 -146 14 -305 31 -159 16 -295 30 -301
30 -15 0 -17 19 -5 37 6 9 103 19 317 33 171 12 324 24 340 29 32 8 -1 12
-403 51 -100 9 -186 20 -189 24 -10 9 56 74 104 103 24 13 85 40 138 59 162
58 396 78 1035 90 206 4 371 8 365 10 -24 7 -343 25 -613 35 -295 11 -665 1
-827 -21 -180 -25 -295 -68 -345 -128 -47 -57 -107 -188 -160 -351 -46 -139
-144 -518 -171 -661 -12 -62 -17 -71 -133 -208 -95 -111 -122 -138 -127 -125
-4 10 -14 99 -23 198 -66 710 -213 1219 -406 1399 -68 64 -119 86 -201 86 -61
0 -72 -3 -123 -38z m177 -89 l32 -16 -33 -9 c-108 -29 -212 -250 -259 -553
-27 -172 -24 -529 6 -700 57 -327 167 -525 293 -525 47 0 21 -21 -34 -27 -84
-10 -154 46 -222 177 -103 197 -154 493 -143 830 11 361 94 655 221 786 58 60
83 66 139 37z m-2488 -403 c3 -6 -3 -22 -15 -37 -125 -159 -109 -1095 20
-1160 21 -10 22 -13 7 -19 -24 -9 -41 8 -65 64 -60 140 -90 525 -61 803 22
222 81 402 114 349z m2677 -365 c32 -103 30 -242 -6 -350 -25 -75 -72 -174
-62 -130 3 11 9 45 15 75 22 125 22 120 1 120 -23 0 -56 41 -65 81 -16 71 31
170 72 155 14 -6 15 2 9 63 -3 38 -9 78 -12 88 -3 10 1 7 10 -7 9 -14 26 -56
38 -95z m-1307 -773 c58 -7 55 -8 -80 -20 -77 -8 -228 -24 -335 -38 -107 -13
-197 -24 -200 -24 -3 0 -4 20 -2 45 l4 45 246 2 c136 2 261 2 277 0 17 -2 57
-6 90 -10z"/>
<path d="M3849 2023 l17 -58 40 3 c93 6 368 33 372 36 2 2 -9 7 -25 10 -31 6
-404 66 -414 66 -4 0 1 -26 10 -57z"/>
<path d="M3884 1895 c4 -15 10 -40 13 -56 4 -21 11 -29 27 -29 59 0 375 34
369 40 -4 4 -89 19 -188 34 -99 15 -191 30 -204 33 -22 5 -23 4 -17 -22z"/>
<path d="M9335 1734 l7 -130 -33 -66 -32 -66 -126 4 c-69 3 -154 6 -189 8 -57
3 -63 2 -67 -18 -2 -11 -26 -111 -53 -221 -52 -210 -96 -339 -137 -400 -14
-20 -25 -38 -25 -40 0 -3 161 -5 358 -5 l359 0 63 133 c98 205 123 280 117
352 -2 33 -19 98 -37 145 -37 98 -156 348 -189 400 l-23 35 7 -131z"/>
<path d="M5507 1522 l-256 -321 142 -206 142 -206 59 5 c32 4 352 6 710 7
l651 1 -92 23 c-92 23 -179 63 -208 94 -8 10 -47 89 -88 177 -81 176 -138 269
-194 311 l-36 28 -369 3 c-202 1 -368 5 -368 7 0 2 38 88 85 191 47 103 84
192 82 197 -1 5 -118 -135 -260 -311z"/>
<path d="M3925 1709 c4 -24 10 -48 15 -52 8 -9 331 22 343 33 4 4 -66 17 -155
29 -90 13 -174 25 -187 28 -22 6 -23 4 -16 -38z"/>
<path d="M3955 1543 c4 -27 8 -49 8 -49 1 -1 65 7 142 17 77 10 147 19 155 19
10 1 9 4 -5 10 -18 8 -267 50 -296 50 -8 0 -9 -15 -4 -47z"/>
</g>
</svg>
